<svg width="23" height="19" viewBox="0 0 23 19" fill="none" xmlns="http://www.w3.org/2000/svg">
<path d="M1.35369 8.14984C1.35369 8.14984 11.1191 4.0368 14.506 2.5885C15.8043 2.00922 20.2072 0.155386 20.2072 0.155386C20.2072 0.155386 22.2393 -0.655597 22.07 1.31401C22.0135 2.12508 21.5619 4.96364 21.1104 8.03399C20.433 12.3788 19.6992 17.1291 19.6992 17.1291C19.6992 17.1291 19.5863 18.4615 18.6267 18.6933C17.6671 18.925 16.0865 17.8823 15.8043 17.6505C15.5784 17.4767 11.5707 14.8698 10.1031 13.5953C9.70792 13.2478 9.25636 12.5526 10.1595 11.7416C12.1916 9.82985 14.6189 7.45471 16.0865 5.94852C16.7639 5.25331 17.4412 3.63127 14.6188 5.60088C10.6111 8.43952 6.65977 11.1043 6.65977 11.1043C6.65977 11.1043 5.75658 11.6836 4.06317 11.1622C2.36969 10.6409 0.394016 9.94571 0.394016 9.94571C0.394016 9.94571 -0.960648 9.07676 1.35369 8.14984Z" fill="white"/>
</svg>
