<svg width="56" height="56" viewBox="0 0 56 56" fill="none" xmlns="http://www.w3.org/2000/svg">
<path d="M28.0616 56H27.9384C12.5333 56 0 43.4667 0 28.0616V27.9384C0 12.5333 12.5333 0 27.9384 0H28.0616C43.4667 0 56 12.5333 56 27.9384V28.0616C56 43.4667 43.4667 56 28.0616 56ZM27.9384 1.89554C13.5778 1.89554 1.89554 13.5778 1.89554 27.9384V28.0616C1.89554 42.4222 13.5778 54.1045 27.9384 54.1045H28.0616C42.4222 54.1045 54.1045 42.4222 54.1045 28.0616V27.9384C54.1045 13.5778 42.4222 1.89554 28.0616 1.89554H27.9384Z" fill="white" fill-opacity="0.2"/>
<path d="M26.3752 28.7897C26.0104 28.3322 25.5926 27.9821 25.1249 27.7452C25.5382 27.4937 25.8942 27.1848 26.1884 26.817C26.6842 26.1963 26.9357 25.4181 26.9357 24.5031C26.9357 23.7396 26.7342 23.0379 26.3355 22.4186C25.9383 21.7993 25.347 21.3021 24.5776 20.9402C23.8245 20.5857 22.9168 20.4062 21.8827 20.4062H16V35.5977H22.1534C23.161 35.5977 24.0613 35.4138 24.8277 35.0519C25.6088 34.6842 26.2178 34.1693 26.6356 33.5235C27.0549 32.8748 27.2682 32.1378 27.2682 31.3331C27.2682 30.3902 26.9681 29.5355 26.3752 28.7912V28.7897ZM23.2508 26.0212C22.8874 26.3154 22.3564 26.4654 21.6753 26.4654H19.1304V23.0997H21.6753C22.3534 23.0997 22.8815 23.2542 23.2449 23.5601C23.5935 23.8529 23.7627 24.2574 23.7627 24.7929C23.7627 25.3284 23.595 25.7432 23.2508 26.0212ZM19.1304 29.1604H21.8621C22.577 29.1604 23.1272 29.334 23.5435 29.6914C23.9421 30.0342 24.1363 30.4888 24.1363 31.0831C24.1363 31.6774 23.9569 32.0966 23.5861 32.4099C23.2022 32.735 22.6506 32.8998 21.9445 32.8998H19.1304V29.1604Z" fill="white"/>
<path d="M39.2857 26.2492C38.812 25.393 38.1412 24.7178 37.2909 24.2442C36.4422 23.7705 35.461 23.5307 34.3783 23.5307C33.2956 23.5307 32.2409 23.7778 31.3715 24.2647C30.5006 24.7531 29.8151 25.4548 29.3356 26.3536C28.856 27.2509 28.6133 28.3042 28.6133 29.484C28.6133 30.6638 28.8634 31.7185 29.3576 32.6144C29.8519 33.5117 30.5433 34.2178 31.4141 34.7121C32.2835 35.2063 33.2809 35.4564 34.3798 35.4564C35.7287 35.4564 36.8746 35.1136 37.7867 34.4384C38.6987 33.7632 39.3372 32.8835 39.6858 31.8259L39.7108 31.7508H37.0423L37.0262 31.7832C36.5128 32.8233 35.6228 33.3499 34.3783 33.3499C33.5118 33.3499 32.7704 33.0748 32.1747 32.5349C31.5936 32.0068 31.2597 31.3007 31.1817 30.4343H39.9079L39.9153 30.3858C39.9712 30.0371 39.9991 29.6429 39.9991 29.2148C39.9991 28.1027 39.7593 27.1053 39.2857 26.2492ZM32.2159 26.4022C32.7837 25.8947 33.4765 25.6387 34.2738 25.6387C35.155 25.6387 35.9038 25.8991 36.4995 26.414C37.0791 26.9141 37.3866 27.5863 37.413 28.4101H31.2067C31.3244 27.5731 31.6642 26.8979 32.2173 26.4036L32.2159 26.4022Z" fill="white"/>
<path d="M37.2125 20.7547H31.4004V22.132H37.2125V20.7547Z" fill="white"/>
</svg>
