<svg width="56" height="56" viewBox="0 0 56 56" fill="none" xmlns="http://www.w3.org/2000/svg">
<path d="M28.0616 56H27.9384C12.5333 56 0 43.4667 0 28.0616V27.9384C0 12.5333 12.5333 0 27.9384 0H28.0616C43.4667 0 56 12.5333 56 27.9384V28.0616C56 43.4667 43.4667 56 28.0616 56ZM27.9384 1.89554C13.5778 1.89554 1.89554 13.5778 1.89554 27.9384V28.0616C1.89554 42.4223 13.5778 54.1045 27.9384 54.1045H28.0616C42.4223 54.1045 54.1045 42.4223 54.1045 28.0616V27.9384C54.1045 13.5778 42.4223 1.89554 28.0616 1.89554H27.9384Z" fill="white" fill-opacity="0.2"/>
<path d="M15.6305 27.1169C15.6856 27.0891 15.7408 27.0628 15.7945 27.0378C16.7287 26.6021 17.6753 26.1942 18.6206 25.7863C18.6716 25.7863 18.757 25.7266 18.8052 25.7072C18.8782 25.6753 18.9513 25.6447 19.0243 25.6128C19.1648 25.5518 19.3054 25.4921 19.4446 25.4311C19.7256 25.3103 20.0053 25.1897 20.2864 25.0689C20.8472 24.8275 21.408 24.5861 21.9688 24.3433C23.0904 23.8604 24.2134 23.3762 25.335 22.8933C26.4566 22.4105 27.5796 21.9262 28.7012 21.4434C29.8228 20.9605 30.9458 20.4763 32.0674 19.9935C33.189 19.5106 34.312 19.0264 35.4336 18.5435C35.683 18.4353 35.953 18.2744 36.2203 18.2272C36.4449 18.1869 36.664 18.1093 36.89 18.0662C37.3185 17.9844 37.7911 17.9511 38.2017 18.1301C38.3437 18.1925 38.4746 18.2799 38.5834 18.3895C39.1043 18.9084 39.0312 19.7604 38.921 20.4902C38.1535 25.5768 37.386 30.6647 36.6172 35.7513C36.5124 36.4492 36.3691 37.2151 35.8221 37.6563C35.3591 38.0295 34.7005 38.0711 34.1287 37.913C33.5569 37.7534 33.0526 37.419 32.5579 37.0902C30.5062 35.7221 28.4532 34.354 26.4015 32.986C25.9137 32.6613 25.3709 32.2367 25.3764 31.6471C25.3791 31.2919 25.5899 30.9755 25.8049 30.6938C27.5879 28.3517 30.1604 26.7423 32.0743 24.5084C32.3443 24.1934 32.5565 23.6246 32.1859 23.4428C31.9654 23.3346 31.7119 23.4816 31.5107 23.6218C28.9809 25.3908 26.4525 27.1613 23.9227 28.9303C23.0973 29.5075 22.232 30.1014 21.2372 30.2429C20.3471 30.3705 19.4514 30.1208 18.5903 29.8655C17.8683 29.6518 17.1476 29.4326 16.4297 29.2064C16.048 29.0871 15.654 28.9581 15.3591 28.6875C15.0642 28.4169 14.8948 27.9619 15.0725 27.6011C15.1841 27.375 15.4005 27.232 15.6278 27.1155L15.6305 27.1169Z" fill="white"/>
</svg>
