<svg width="56" height="56" viewBox="0 0 56 56" fill="none" xmlns="http://www.w3.org/2000/svg">
<path d="M28.0616 56H27.9384C12.5333 56 0 43.4667 0 28.0616V27.9384C0 12.5333 12.5333 0 27.9384 0H28.0616C43.4667 0 56 12.5333 56 27.9384V28.0616C56 43.4667 43.4667 56 28.0616 56ZM27.9384 1.89554C13.5778 1.89554 1.89554 13.5778 1.89554 27.9384V28.0616C1.89554 42.4223 13.5778 54.1045 27.9384 54.1045H28.0616C42.4222 54.1045 54.1045 42.4223 54.1045 28.0616V27.9384C54.1045 13.5778 42.4222 1.89554 28.0616 1.89554H27.9384Z" fill="white" fill-opacity="0.2"/>
<path d="M31.5928 33.3893C26.877 33.3893 23.0404 29.5514 23.0391 24.8356C23.0404 23.6402 24.0137 22.6682 25.2065 22.6682C25.3292 22.6682 25.4505 22.6785 25.5667 22.6991C25.8223 22.7417 26.065 22.8282 26.2883 22.9586C26.3206 22.978 26.3426 23.009 26.3477 23.0451L26.846 26.1859C26.8525 26.2234 26.8409 26.2595 26.8163 26.2866C26.5414 26.5913 26.1902 26.8108 25.7991 26.9205L25.6106 26.9734L25.6816 27.1554C26.3245 28.7923 27.6335 30.1001 29.2717 30.7455L29.4537 30.8178L29.5066 30.6293C29.6164 30.2382 29.8358 29.887 30.1405 29.6121C30.1624 29.5914 30.1921 29.5811 30.2218 29.5811C30.2283 29.5811 30.2347 29.5811 30.2425 29.5824L33.3833 30.0807C33.4207 30.0872 33.4517 30.1078 33.4711 30.1401C33.6002 30.3634 33.6867 30.6074 33.7306 30.863C33.7512 30.9766 33.7602 31.0966 33.7602 31.2219C33.7602 32.416 32.7882 33.3881 31.5928 33.3893Z" fill="white"/>
<path d="M39.9551 26.9657C39.7008 24.092 38.3841 21.4263 36.2476 19.4602C34.0982 17.4825 31.3098 16.3929 28.3936 16.3929C21.9931 16.3929 16.7855 21.6006 16.7855 28.001C16.7855 30.1491 17.3781 32.2417 18.4999 34.0645L15.998 39.6026L24.0083 38.7493C25.4012 39.3199 26.8754 39.609 28.3923 39.609C28.7912 39.609 29.2004 39.5884 29.6109 39.5458C29.9724 39.507 30.3377 39.4503 30.6966 39.378C36.0565 38.2949 39.9693 33.5378 40.0003 28.063V28.001C40.0003 27.6524 39.9848 27.3039 39.9539 26.967L39.9551 26.9657ZM24.3168 36.3184L19.8851 36.791L21.2083 33.8593L20.9436 33.5042C20.9242 33.4784 20.9049 33.4526 20.8829 33.4229C19.734 31.8363 19.1273 29.9619 19.1273 28.0023C19.1273 22.8928 23.2841 18.736 28.3936 18.736C33.1803 18.736 37.2377 22.4706 37.6289 27.2381C37.6495 27.4937 37.6612 27.7506 37.6612 28.0036C37.6612 28.0759 37.6599 28.1469 37.6586 28.223C37.5605 32.4973 34.5745 36.1274 30.3971 37.0517C30.0782 37.1227 29.7516 37.1769 29.4263 37.2118C29.0881 37.2505 28.7408 37.2699 28.3961 37.2699C27.1685 37.2699 25.9757 37.0324 24.8487 36.5625C24.7235 36.5121 24.6008 36.4579 24.4859 36.4024L24.3181 36.321L24.3168 36.3184Z" fill="white"/>
</svg>
