<svg width="1486" height="238" viewBox="0 0 1486 238" fill="none" xmlns="http://www.w3.org/2000/svg">
<g clip-path="url(#clip0_55_8)">
<path d="M0 164H1486V211H0V164Z" fill="#005CC5"/>
<path d="M1415.23 190.92C1401.47 190.92 1389.23 188.04 1378.51 182.28C1367.95 176.52 1359.55 168.68 1353.31 158.76C1347.23 148.68 1344.19 137.24 1344.19 124.44C1344.19 111.48 1347.23 100.04 1353.31 90.12C1359.55 80.04 1367.95 72.2 1378.51 66.6C1389.23 60.84 1401.47 57.96 1415.23 57.96C1428.83 57.96 1440.99 60.84 1451.71 66.6C1462.43 72.2 1470.83 79.96 1476.91 89.88C1482.99 99.8 1486.03 111.32 1486.03 124.44C1486.03 137.24 1482.99 148.68 1476.91 158.76C1470.83 168.68 1462.43 176.52 1451.71 182.28C1440.99 188.04 1428.83 190.92 1415.23 190.92ZM1415.23 160.2C1421.47 160.2 1427.07 158.76 1432.03 155.88C1436.99 153 1440.91 148.92 1443.79 143.64C1446.67 138.2 1448.11 131.8 1448.11 124.44C1448.11 116.92 1446.67 110.52 1443.79 105.24C1440.91 99.96 1436.99 95.88 1432.03 93C1427.07 90.12 1421.47 88.68 1415.23 88.68C1408.99 88.68 1403.39 90.12 1398.43 93C1393.47 95.88 1389.47 99.96 1386.43 105.24C1383.55 110.52 1382.11 116.92 1382.11 124.44C1382.11 131.8 1383.55 138.2 1386.43 143.64C1389.47 148.92 1393.47 153 1398.43 155.88C1403.39 158.76 1408.99 160.2 1415.23 160.2Z" fill="white"/>
<path d="M1303.21 189V59.88H1340.65V189H1303.21ZM1321.93 41.88C1315.05 41.88 1309.45 39.88 1305.12 35.88C1300.8 31.88 1298.65 26.92 1298.65 21C1298.65 15.08 1300.8 10.12 1305.12 6.12C1309.45 2.12 1315.05 0.119995 1321.93 0.119995C1328.81 0.119995 1334.41 2.04 1338.73 5.88C1343.05 9.56001 1345.21 14.36 1345.21 20.28C1345.21 26.52 1343.05 31.72 1338.73 35.88C1334.57 39.88 1328.97 41.88 1321.93 41.88Z" fill="white"/>
<path d="M1214.07 190.92C1201.91 190.92 1190.95 188.2 1181.19 182.76C1171.43 177.16 1163.67 169.4 1157.91 159.48C1152.31 149.56 1149.51 137.88 1149.51 124.44C1149.51 110.84 1152.31 99.08 1157.91 89.16C1163.67 79.24 1171.43 71.56 1181.19 66.12C1190.95 60.68 1201.91 57.96 1214.07 57.96C1224.95 57.96 1234.47 60.36 1242.63 65.16C1250.79 69.96 1257.11 77.24 1261.59 87C1266.07 96.76 1268.31 109.24 1268.31 124.44C1268.31 139.48 1266.15 151.96 1261.83 161.88C1257.51 171.64 1251.27 178.92 1243.11 183.72C1235.11 188.52 1225.43 190.92 1214.07 190.92ZM1220.55 160.2C1226.63 160.2 1232.15 158.76 1237.11 155.88C1242.07 153 1245.99 148.92 1248.87 143.64C1251.91 138.2 1253.43 131.8 1253.43 124.44C1253.43 116.92 1251.91 110.52 1248.87 105.24C1245.99 99.96 1242.07 95.88 1237.11 93C1232.15 90.12 1226.63 88.68 1220.55 88.68C1214.31 88.68 1208.71 90.12 1203.75 93C1198.79 95.88 1194.79 99.96 1191.75 105.24C1188.87 110.52 1187.43 116.92 1187.43 124.44C1187.43 131.8 1188.87 138.2 1191.75 143.64C1194.79 148.92 1198.79 153 1203.75 155.88C1208.71 158.76 1214.31 160.2 1220.55 160.2ZM1254.39 189V162.6L1255.11 124.2L1252.71 86.04V10.92H1290.15V189H1254.39Z" fill="white"/>
<path d="M1069.95 190.92C1059.23 190.92 1049.63 188.84 1041.15 184.68C1032.83 180.52 1026.35 174.2 1021.71 165.72C1017.07 157.08 1014.75 146.12 1014.75 132.84V59.88H1052.19V127.32C1052.19 138.04 1054.43 145.96 1058.91 151.08C1063.55 156.04 1070.03 158.52 1078.35 158.52C1084.11 158.52 1089.23 157.32 1093.71 154.92C1098.19 152.36 1101.71 148.52 1104.27 143.4C1106.83 138.12 1108.11 131.56 1108.11 123.72V59.88H1145.55V189H1110.03V153.48L1116.51 163.8C1112.19 172.76 1105.79 179.56 1097.31 184.2C1088.99 188.68 1079.87 190.92 1069.95 190.92Z" fill="white"/>
<path d="M985.571 190.92C970.371 190.92 958.531 187.08 950.051 179.4C941.571 171.56 937.331 159.96 937.331 144.6V31.32H974.771V144.12C974.771 149.56 976.211 153.8 979.091 156.84C981.971 159.72 985.891 161.16 990.851 161.16C996.771 161.16 1001.81 159.56 1005.97 156.36L1016.05 182.76C1012.21 185.48 1007.57 187.56 1002.13 189C996.851 190.28 991.331 190.92 985.571 190.92ZM917.411 91.56V62.76H1006.93V91.56H917.411Z" fill="white"/>
<path d="M870.311 190.92C859.271 190.92 848.631 189.64 838.391 187.08C828.311 184.36 820.311 181 814.391 177L826.871 150.12C832.791 153.8 839.751 156.84 847.751 159.24C855.911 161.48 863.911 162.6 871.751 162.6C880.391 162.6 886.471 161.56 889.991 159.48C893.671 157.4 895.511 154.52 895.511 150.84C895.511 147.8 894.071 145.56 891.191 144.12C888.471 142.52 884.791 141.32 880.151 140.52C875.511 139.72 870.391 138.92 864.791 138.12C859.351 137.32 853.831 136.28 848.231 135C842.631 133.56 837.511 131.48 832.871 128.76C828.231 126.04 824.471 122.36 821.591 117.72C818.871 113.08 817.511 107.08 817.511 99.72C817.511 91.56 819.831 84.36 824.471 78.12C829.271 71.88 836.151 67 845.111 63.48C854.071 59.8 864.791 57.96 877.271 57.96C886.071 57.96 895.031 58.92 904.151 60.84C913.271 62.76 920.871 65.56 926.951 69.24L914.471 95.88C908.231 92.2 901.911 89.72 895.511 88.44C889.271 87 883.191 86.28 877.271 86.28C868.951 86.28 862.871 87.4 859.031 89.64C855.191 91.88 853.271 94.76 853.271 98.28C853.271 101.48 854.631 103.88 857.351 105.48C860.231 107.08 863.991 108.36 868.631 109.32C873.271 110.28 878.311 111.16 883.751 111.96C889.351 112.6 894.951 113.64 900.551 115.08C906.151 116.52 911.191 118.6 915.671 121.32C920.311 123.88 924.071 127.48 926.951 132.12C929.831 136.6 931.271 142.52 931.271 149.88C931.271 157.88 928.871 165 924.071 171.24C919.271 177.32 912.311 182.12 903.191 185.64C894.231 189.16 883.271 190.92 870.311 190.92Z" fill="white"/>
<path d="M714.645 57.96C724.885 57.96 734.005 60.04 742.005 64.2C750.165 68.2 756.565 74.44 761.205 82.92C765.845 91.24 768.165 101.96 768.165 115.08V189H730.725V120.84C730.725 110.44 728.405 102.76 723.765 97.8C719.285 92.84 712.885 90.36 704.565 90.36C698.645 90.36 693.284 91.64 688.484 94.2C683.844 96.6 680.165 100.36 677.445 105.48C674.885 110.6 673.605 117.16 673.605 125.16V189H636.165V59.88H671.924V95.64L665.205 84.84C669.845 76.2 676.485 69.56 685.125 64.92C693.765 60.28 703.605 57.96 714.645 57.96Z" fill="white"/>
<path d="M530.647 237.48C523.927 237.48 517.287 236.44 510.727 234.36C504.167 232.28 498.807 229.4 494.647 225.72L508.327 199.08C511.207 201.64 514.487 203.64 518.167 205.08C522.007 206.52 525.767 207.24 529.447 207.24C534.727 207.24 538.887 205.96 541.927 203.4C545.127 201 548.007 196.92 550.567 191.16L557.287 175.32L560.167 171.24L606.487 59.88H642.487L584.167 196.92C580.007 207.32 575.207 215.48 569.767 221.4C564.487 227.32 558.567 231.48 552.007 233.88C545.607 236.28 538.487 237.48 530.647 237.48ZM552.727 194.04L495.127 59.88H533.767L578.407 167.88L552.727 194.04Z" fill="white"/>
<path d="M450.945 190.92C436.225 190.92 423.265 188.04 412.065 182.28C401.025 176.52 392.465 168.68 386.385 158.76C380.305 148.68 377.265 137.24 377.265 124.44C377.265 111.48 380.225 100.04 386.145 90.12C392.225 80.04 400.465 72.2 410.865 66.6C421.265 60.84 433.025 57.96 446.145 57.96C458.785 57.96 470.145 60.68 480.225 66.12C490.465 71.4 498.545 79.08 504.465 89.16C510.385 99.08 513.345 111 513.345 124.92C513.345 126.36 513.265 128.04 513.105 129.96C512.945 131.72 512.785 133.4 512.625 135H407.745V113.16H492.945L478.545 119.64C478.545 112.92 477.185 107.08 474.465 102.12C471.745 97.16 467.985 93.32 463.185 90.6C458.385 87.72 452.785 86.28 446.385 86.28C439.985 86.28 434.305 87.72 429.345 90.6C424.545 93.32 420.785 97.24 418.065 102.36C415.345 107.32 413.985 113.24 413.985 120.12V125.88C413.985 132.92 415.505 139.16 418.545 144.6C421.745 149.88 426.145 153.96 431.745 156.84C437.505 159.56 444.225 160.92 451.905 160.92C458.785 160.92 464.785 159.88 469.905 157.8C475.185 155.72 479.985 152.6 484.305 148.44L504.225 170.04C498.305 176.76 490.865 181.96 481.905 185.64C472.945 189.16 462.625 190.92 450.945 190.92Z" fill="white"/>
<path d="M336.277 189V10.92H373.717V189H336.277Z" fill="white"/>
<path d="M247.145 190.92C234.985 190.92 224.025 188.2 214.265 182.76C204.505 177.16 196.745 169.4 190.985 159.48C185.385 149.56 182.585 137.88 182.585 124.44C182.585 110.84 185.385 99.08 190.985 89.16C196.745 79.24 204.505 71.56 214.265 66.12C224.025 60.68 234.985 57.96 247.145 57.96C258.025 57.96 267.545 60.36 275.705 65.16C283.865 69.96 290.185 77.24 294.665 87C299.145 96.76 301.385 109.24 301.385 124.44C301.385 139.48 299.225 151.96 294.905 161.88C290.585 171.64 284.345 178.92 276.185 183.72C268.185 188.52 258.505 190.92 247.145 190.92ZM253.625 160.2C259.705 160.2 265.225 158.76 270.185 155.88C275.145 153 279.065 148.92 281.945 143.64C284.985 138.2 286.505 131.8 286.505 124.44C286.505 116.92 284.985 110.52 281.945 105.24C279.065 99.96 275.145 95.88 270.185 93C265.225 90.12 259.705 88.68 253.625 88.68C247.385 88.68 241.785 90.12 236.825 93C231.865 95.88 227.865 99.96 224.825 105.24C221.945 110.52 220.505 116.92 220.505 124.44C220.505 131.8 221.945 138.2 224.825 143.64C227.865 148.92 231.865 153 236.825 155.88C241.785 158.76 247.385 160.2 253.625 160.2ZM287.465 189V162.6L288.185 124.2L285.785 86.04V10.92H323.225V189H287.465Z" fill="white"/>
<path d="M141.118 189V59.88H178.558V189H141.118ZM159.838 41.88C152.958 41.88 147.358 39.88 143.038 35.88C138.718 31.88 136.558 26.92 136.558 21C136.558 15.08 138.718 10.12 143.038 6.12C147.358 2.12 152.958 0.119995 159.838 0.119995C166.718 0.119995 172.318 2.04 176.638 5.88C180.958 9.56001 183.118 14.36 183.118 20.28C183.118 26.52 180.958 31.72 176.638 35.88C172.478 39.88 166.878 41.88 159.838 41.88Z" fill="white"/>
<path d="M54.3201 189L0.0800781 59.88H38.7201L83.8401 171H64.6401L111.44 59.88H147.44L92.9601 189H54.3201Z" fill="white"/>
</g>
<defs>
<clipPath id="clip0_55_8">
<rect width="1486" height="238" fill="white"/>
</clipPath>
</defs>
</svg>
