<svg width="30" height="18" viewBox="0 0 30 18" fill="none" xmlns="http://www.w3.org/2000/svg">
<path fill-rule="evenodd" clip-rule="evenodd" d="M29.0054 2.08883C29.2083 1.4543 29.0054 0.988037 28.04 0.988037H24.8476C24.0359 0.988037 23.6617 1.39082 23.4588 1.83497C23.4588 1.83497 21.8353 5.54696 19.5355 7.95814C18.7915 8.6561 18.4532 8.87818 18.0474 8.87818C17.8445 8.87818 17.5507 8.6561 17.5507 8.02162V2.08884C17.5507 1.32739 17.3152 0.988037 16.6387 0.988037H11.6221C11.1148 0.988037 10.8098 1.34144 10.8098 1.67637C10.8098 2.39821 11.9596 2.56467 12.0781 4.59518V9.00514C12.0781 9.97201 11.892 10.1473 11.4862 10.1473C10.4039 10.1473 7.77139 6.41873 6.21006 2.15226C5.90408 1.32301 5.59718 0.988037 4.7813 0.988037H1.58892C0.676816 0.988037 0.494385 1.39082 0.494385 1.83497C0.494385 2.62815 1.57667 6.56222 5.53369 11.7653C8.17168 15.3186 11.8884 17.2447 15.2705 17.2447C17.2998 17.2447 17.5508 16.8169 17.5508 16.08V13.3945C17.5508 12.5389 17.743 12.3681 18.3856 12.3681C18.8591 12.3681 19.6708 12.5902 21.5648 14.3034C23.7293 16.3339 24.0862 17.2447 25.3037 17.2447H28.4961C29.4082 17.2447 29.8642 16.8169 29.6011 15.9727C29.3132 15.1312 28.2798 13.9104 26.9085 12.4633C26.1644 11.6384 25.0484 10.7501 24.7101 10.3058C24.2366 9.73484 24.3719 9.48098 24.7101 8.9734C24.7101 8.9734 28.5996 3.83374 29.0054 2.08883Z" fill="white"/>
</svg>
