<svg width="24" height="25" viewBox="0 0 24 25" fill="none" xmlns="http://www.w3.org/2000/svg">
<path d="M0 24.0213L1.72195 17.6187C0.333239 15.1246 -0.107966 12.2141 0.47929 9.42145C1.06655 6.62876 2.64287 4.14116 4.91901 2.41513C7.19515 0.689092 10.0184 -0.159597 12.8708 0.0247957C15.7231 0.209188 18.4131 1.41429 20.4473 3.41897C22.4815 5.42365 23.7233 8.09344 23.9449 10.9384C24.1665 13.7834 23.353 16.6127 21.6537 18.9072C19.9544 21.2018 17.4832 22.8075 14.6937 23.4299C11.9042 24.0523 8.9835 23.6495 6.46746 22.2955L0 24.0213ZM6.77931 19.8996L7.17929 20.1365C9.00171 21.2149 11.1303 21.6611 13.2333 21.4057C15.3362 21.1503 17.2955 20.2075 18.8058 18.7243C20.3161 17.2412 21.2925 15.3009 21.5828 13.2059C21.8732 11.1108 21.4613 8.97875 20.4112 7.14187C19.3611 5.30499 17.7318 3.8665 15.7774 3.05055C13.8229 2.23461 11.6529 2.08705 9.60564 2.63087C7.55837 3.1747 5.7488 4.37935 4.45892 6.05711C3.16904 7.73487 2.4713 9.79149 2.47445 11.9065C2.47273 13.6601 2.95853 15.3799 3.87777 16.8742L4.1286 17.2871L3.16594 20.8606L6.77931 19.8996Z" fill="white"/>
<path fill-rule="evenodd" clip-rule="evenodd" d="M16.0568 13.7376C15.8223 13.5488 15.5478 13.4159 15.2541 13.3491C14.9604 13.2822 14.6553 13.2832 14.362 13.3518C13.9213 13.5346 13.6366 14.2249 13.3519 14.5701C13.2918 14.6528 13.2036 14.7109 13.1037 14.7333C13.0039 14.7557 12.8993 14.741 12.8095 14.6919C11.1963 14.0611 9.84401 12.9043 8.97242 11.4094C8.89808 11.3161 8.86289 11.1977 8.87427 11.079C8.88565 10.9603 8.94271 10.8507 9.03343 10.7732C9.351 10.4593 9.58417 10.0706 9.71136 9.64293C9.73961 9.1712 9.63135 8.70132 9.39951 8.28931C9.22028 7.71169 8.87918 7.19737 8.41651 6.8071C8.17788 6.69995 7.91329 6.66403 7.65467 6.70366C7.39604 6.74329 7.15442 6.85678 6.95896 7.03045C6.61964 7.32272 6.3503 7.68726 6.17079 8.09722C5.99128 8.50719 5.90617 8.95212 5.92173 9.39928C5.92277 9.65038 5.95465 9.90041 6.01664 10.1438C6.17406 10.7285 6.41615 11.2871 6.73524 11.8019C6.96547 12.1963 7.21666 12.5781 7.48775 12.9457C8.36875 14.1532 9.47619 15.1783 10.7486 15.9643C11.3871 16.3637 12.0695 16.6885 12.7824 16.9321C13.5229 17.2673 14.3405 17.3959 15.1484 17.3044C15.6087 17.2348 16.0448 17.0534 16.4183 16.7761C16.7919 16.4987 17.0914 16.134 17.2906 15.7139C17.4077 15.4601 17.4432 15.1764 17.3923 14.9017C17.2703 14.34 16.5178 14.0083 16.0568 13.7376Z" fill="white"/>
</svg>
